<svg width="18" height="18" viewBox="0 0 18 18" fill="none" xmlns="http://www.w3.org/2000/svg">
<path d="M9.00001 0.699951C4.41667 0.699951 0.666672 4.44162 0.666672 9.04995C0.666672 13.2166 3.71667 16.6749 7.70001 17.2999V11.4666H5.58334V9.04995H7.70001V7.20828C7.70001 5.11662 8.94167 3.96662 10.85 3.96662C11.7583 3.96662 12.7083 4.12495 12.7083 4.12495V6.18328H11.6583C10.625 6.18328 10.3 6.82495 10.3 7.48328V9.04995H12.6167L12.2417 11.4666H10.3V17.2999C12.2637 16.9898 14.0518 15.9879 15.3416 14.475C16.6314 12.9621 17.3378 11.038 17.3333 9.04995C17.3333 4.44162 13.5833 0.699951 9.00001 0.699951Z" fill="white"/>
</svg>
