<svg width="19" height="12" viewBox="0 0 19 12" fill="none" xmlns="http://www.w3.org/2000/svg">
<path d="M18.5667 5.16675H16.9V3.50008H15.2333V5.16675H13.5667V6.83342H15.2333V8.50008H16.9V6.83342H18.5667V5.16675ZM6.06667 5.16675V7.16675H9.4C9.23334 8.00008 8.4 9.66675 6.06667 9.66675C4.06667 9.66675 2.48334 8.00008 2.48334 6.00008C2.48334 4.00008 4.06667 2.33341 6.06667 2.33341C7.23334 2.33341 7.98334 2.83341 8.4 3.25008L9.98334 1.75008C8.98334 0.750081 7.65 0.166748 6.06667 0.166748C2.81667 0.166748 0.233337 2.75008 0.233337 6.00008C0.233337 9.25008 2.81667 11.8334 6.06667 11.8334C9.4 11.8334 11.65 9.50008 11.65 6.16675C11.65 5.75008 11.65 5.50008 11.5667 5.16675H6.06667Z" fill="white"/>
</svg>
