<svg width="16" height="16" viewBox="0 0 16 16" fill="none" xmlns="http://www.w3.org/2000/svg">
<path d="M13.4333 0.5C13.8753 0.5 14.2993 0.675595 14.6118 0.988155C14.9244 1.30072 15.1 1.72464 15.1 2.16667V13.8333C15.1 14.2754 14.9244 14.6993 14.6118 15.0118C14.2993 15.3244 13.8753 15.5 13.4333 15.5H1.76664C1.32461 15.5 0.900691 15.3244 0.588131 15.0118C0.27557 14.6993 0.0999756 14.2754 0.0999756 13.8333V2.16667C0.0999756 1.72464 0.27557 1.30072 0.588131 0.988155C0.900691 0.675595 1.32461 0.5 1.76664 0.5H13.4333ZM13.0166 13.4167V9C13.0166 8.27949 12.7304 7.5885 12.2209 7.07903C11.7115 6.56955 11.0205 6.28333 10.3 6.28333C9.59164 6.28333 8.76664 6.71667 8.36664 7.36667V6.44167H6.04164V13.4167H8.36664V9.30833C8.36664 8.66667 8.88331 8.14167 9.52498 8.14167C9.8344 8.14167 10.1311 8.26458 10.3499 8.48338C10.5687 8.70217 10.6916 8.99891 10.6916 9.30833V13.4167H13.0166ZM3.33331 5.13333C3.70461 5.13333 4.06071 4.98583 4.32326 4.72328C4.58581 4.46073 4.73331 4.10464 4.73331 3.73333C4.73331 2.95833 4.10831 2.325 3.33331 2.325C2.9598 2.325 2.60158 2.47338 2.33747 2.73749C2.07335 3.0016 1.92498 3.35982 1.92498 3.73333C1.92498 4.50833 2.55831 5.13333 3.33331 5.13333ZM4.49164 13.4167V6.44167H2.18331V13.4167H4.49164Z" fill="white"/>
</svg>
