<svg width="18" height="15" viewBox="0 0 18 15" fill="none" xmlns="http://www.w3.org/2000/svg">
<path d="M17.9167 1.99992C17.275 2.29159 16.5833 2.48325 15.8667 2.57492C16.6 2.13325 17.1667 1.43325 17.4333 0.591585C16.7417 1.00825 15.975 1.29992 15.1667 1.46659C14.5083 0.749919 13.5833 0.333252 12.5333 0.333252C10.575 0.333252 8.975 1.93325 8.975 3.90825C8.975 4.19159 9.00834 4.46659 9.06667 4.72492C6.1 4.57492 3.45834 3.14992 1.7 0.991585C1.39167 1.51659 1.21667 2.13325 1.21667 2.78325C1.21667 4.02492 1.84167 5.12492 2.80834 5.74992C2.21667 5.74992 1.66667 5.58325 1.18334 5.33325C1.18334 5.33325 1.18334 5.33325 1.18334 5.35825C1.18334 7.09158 2.41667 8.54158 4.05 8.86658C3.75 8.94992 3.43334 8.99159 3.10834 8.99159C2.88334 8.99159 2.65834 8.96659 2.44167 8.92492C2.89167 10.3333 4.2 11.3833 5.775 11.4083C4.55834 12.3749 3.01667 12.9416 1.33334 12.9416C1.05 12.9416 0.766671 12.9249 0.483337 12.8916C2.06667 13.9083 3.95 14.4999 5.96667 14.4999C12.5333 14.4999 16.1417 9.04992 16.1417 4.32492C16.1417 4.16659 16.1417 4.01658 16.1333 3.85825C16.8333 3.35825 17.4333 2.72492 17.9167 1.99992Z" fill="white"/>
</svg>
