<svg width="20" height="14" viewBox="0 0 20 14" fill="none" xmlns="http://www.w3.org/2000/svg">
<path d="M12.5 8.66667C10.275 8.66667 5.83337 9.775 5.83337 12V13.6667H19.1667V12C19.1667 9.775 14.725 8.66667 12.5 8.66667ZM5.00004 5.33333V2.83333H3.33337V5.33333H0.833374V7H3.33337V9.5H5.00004V7H7.50004V5.33333H5.00004ZM12.5 7C13.3841 7 14.2319 6.64881 14.8571 6.02369C15.4822 5.39857 15.8334 4.55072 15.8334 3.66667C15.8334 2.78261 15.4822 1.93477 14.8571 1.30964C14.2319 0.684523 13.3841 0.333334 12.5 0.333334C11.616 0.333334 10.7681 0.684523 10.143 1.30964C9.5179 1.93477 9.16671 2.78261 9.16671 3.66667C9.16671 4.55072 9.5179 5.39857 10.143 6.02369C10.7681 6.64881 11.616 7 12.5 7Z" fill="#6C779E"/>
</svg>
