<svg width="15" height="17" viewBox="0 0 15 17" fill="none" xmlns="http://www.w3.org/2000/svg">
<path d="M13.8517 0.69165C13.9792 0.69165 14.1075 0.75665 14.1717 0.820817C14.2032 0.879938 14.2197 0.945904 14.2197 1.0129C14.2197 1.0799 14.2032 1.14586 14.1717 1.20498L9.10751 10.18L12.3125 16.0766C12.3442 16.1359 12.3607 16.202 12.3607 16.2692C12.3607 16.3363 12.3442 16.4024 12.3125 16.4616C12.2249 16.5418 12.1112 16.5874 11.9925 16.59H9.68417C9.36417 16.59 9.17167 16.3333 9.04334 16.1408L5.77417 10.1792C5.96667 9.92332 10.9025 1.14165 10.9025 1.14165C11.0308 0.885817 11.2233 0.693317 11.5442 0.693317H13.8517V0.69165ZM4.23584 3.83332C4.55667 3.83332 4.74834 4.08998 4.87751 4.28165L6.47917 7.03832C6.35167 7.16665 3.97917 11.3967 3.97917 11.3967C3.85167 11.59 3.65917 11.8467 3.33834 11.8467H1.09501C0.976028 11.8443 0.861987 11.7986 0.774175 11.7183C0.742516 11.6591 0.725952 11.593 0.725952 11.5258C0.725952 11.4587 0.742516 11.3925 0.774175 11.3333L3.14584 7.03832L1.60751 4.34665C1.57585 4.28743 1.55929 4.22131 1.55929 4.15415C1.55929 4.08699 1.57585 4.02088 1.60751 3.96165C1.69532 3.88133 1.80936 3.83572 1.92834 3.83332H4.23667H4.23584Z" fill="white"/>
</svg>
